<mxfile host="app.diagrams.net" modified="2024-04-29T11:55:14.974Z" agent="Mozilla/5.0 (X11; Linux x86_64) AppleWebKit/537.36 (KHTML, like Gecko) Chrome/124.0.0.0 Safari/537.36" version="24.3.1" etag="7y2pcXSdCs9WuFMYMwrY" type="github">
  <diagram name="Page-1" id="lyASNQNYgEOY33pdEkeG">
    <mxGraphModel>
      <root>
        <mxCell id="0" />
        <mxCell id="1" parent="0" />
      </root>
    </mxGraphModel>
  </diagram>
</mxfile>
